<?xml version="1.0" encoding="UTF-8"?>
<svg width="40px" height="40px" viewBox="0 0 40 40" version="1.1" xmlns="http://www.w3.org/2000/svg" xmlns:xlink="http://www.w3.org/1999/xlink">
    <title>Cursor/alias</title>
    <defs>
        <path d="M13,0 C14.6568542,0 16,1.34314575 16,3 L16,13 C16,14.6568542 14.6568542,16 13,16 L3,16 C1.34314575,16 0,14.6568542 0,13 L0,3 C0,1.34314575 1.34314575,0 3,0 L13,0 Z M13,1.5 L3,1.5 C2.17157288,1.5 1.5,2.17157288 1.5,3 L1.5,13 C1.5,13.8284271 2.17157288,14.5 3,14.5 L13,14.5 C13.8284271,14.5 14.5,13.8284271 14.5,13 L14.5,3 C14.5,2.17157288 13.8284271,1.5 13,1.5 Z" id="path-1"></path>
        <filter x="-46.9%" y="-40.6%" width="193.8%" height="193.8%" filterUnits="objectBoundingBox" id="filter-2">
            <feMorphology radius="1" operator="dilate" in="SourceAlpha" result="shadowSpreadOuter1"></feMorphology>
            <feOffset dx="0" dy="1" in="shadowSpreadOuter1" result="shadowOffsetOuter1"></feOffset>
            <feGaussianBlur stdDeviation="2" in="shadowOffsetOuter1" result="shadowBlurOuter1"></feGaussianBlur>
            <feComposite in="shadowBlurOuter1" in2="SourceAlpha" operator="out" result="shadowBlurOuter1"></feComposite>
            <feColorMatrix values="0 0 0 0 0   0 0 0 0 0   0 0 0 0 0  0 0 0 0.4 0" type="matrix" in="shadowBlurOuter1"></feColorMatrix>
        </filter>
        <path d="M6.17573593,3.51573593 C6.41005051,3.28142136 6.78994949,3.28142136 7.02426407,3.51573593 L18.9757359,15.4672078 C19.0882578,15.5797296 19.1514719,15.732342 19.1514719,15.8914719 C19.1514719,16.2228427 18.8828427,16.4914719 18.5514719,16.4914719 L13.937,16.491 L17.3534806,23.323122 C17.5016998,23.6194963 17.3815963,23.9799105 17.085222,24.1281297 L14.3215613,25.5102584 C14.025187,25.6584776 13.6647728,25.5383741 13.5165537,25.2419998 L10.094,18.397 L7.02426407,21.4672078 C6.93424661,21.5572253 6.81857121,21.6156858 6.69442725,21.6354693 L6.6,21.6429437 C6.26862915,21.6429437 6,21.3743146 6,21.0429437 L6,3.94 C6,3.78087011 6.0632141,3.62825776 6.17573593,3.51573593 Z" id="path-3"></path>
        <filter x="-55.2%" y="-27.4%" width="211.6%" height="164.2%" filterUnits="objectBoundingBox" id="filter-4">
            <feMorphology radius="0.6" operator="dilate" in="SourceAlpha" result="shadowSpreadOuter1"></feMorphology>
            <feOffset dx="0" dy="1" in="shadowSpreadOuter1" result="shadowOffsetOuter1"></feOffset>
            <feGaussianBlur stdDeviation="2" in="shadowOffsetOuter1" result="shadowBlurOuter1"></feGaussianBlur>
            <feComposite in="shadowBlurOuter1" in2="SourceAlpha" operator="out" result="shadowBlurOuter1"></feComposite>
            <feColorMatrix values="0 0 0 0 0   0 0 0 0 0   0 0 0 0 0  0 0 0 0.399502841 0" type="matrix" in="shadowBlurOuter1"></feColorMatrix>
        </filter>
    </defs>
    <g id="Cursor/alias" stroke="none" stroke-width="1" fill="none" fill-rule="evenodd">
        <g id="角标" transform="translate(20, 18)" fill-rule="nonzero">
            <g id="矩形">
                <use fill="black" fill-opacity="1" filter="url(#filter-2)" xlink:href="#path-1"></use>
                <path stroke="#FFFFFF" stroke-width="1" d="M13,-0.5 C13.9664983,-0.5 14.8414983,-0.108249156 15.4748737,0.525126266 C16.1082492,1.15850169 16.5,2.03350169 16.5,3 L16.5,13 C16.5,13.9664983 16.1082492,14.8414983 15.4748737,15.4748737 C14.8414983,16.1082492 13.9664983,16.5 13,16.5 L3,16.5 C2.03350169,16.5 1.15850169,16.1082492 0.525126266,15.4748737 C-0.108249156,14.8414983 -0.5,13.9664983 -0.5,13 L-0.5,3 C-0.5,2.03350169 -0.108249156,1.15850169 0.525126266,0.525126266 C1.15850169,-0.108249156 2.03350169,-0.5 3,-0.5 L13,-0.5 Z M13,2 L3,2 C2.72385763,2 2.47385763,2.11192881 2.29289322,2.29289322 C2.11192881,2.47385763 2,2.72385763 2,3 L2,13 C2,13.2761424 2.11192881,13.5261424 2.29289322,13.7071068 C2.47385763,13.8880712 2.72385763,14 3,14 L13,14 C13.2761424,14 13.5261424,13.8880712 13.7071068,13.7071068 C13.8880712,13.5261424 14,13.2761424 14,13 L14,3 C14,2.72385763 13.8880712,2.47385763 13.7071068,2.29289322 C13.5261424,2.11192881 13.2761424,2 13,2 Z" fill="#000000" fill-rule="evenodd"></path>
            </g>
        </g>
        <g id="形状结合">
            <use fill="black" fill-opacity="1" filter="url(#filter-4)" xlink:href="#path-3"></use>
            <use stroke="#FFFFFF" stroke-width="1.2" fill="#000000" fill-rule="evenodd" xlink:href="#path-3"></use>
        </g>
        <path d="M30.3932723,22.4538091 L30.534236,27.9605107 L28.6997099,26.4585037 C27.9950724,27.1995633 27.8281871,27.9453333 27.9686107,28.8985189 C28.0325572,29.332583 28.14512,29.7070842 28.3325673,30.0339973 C27.9233696,29.8876415 27.5252359,29.6637724 27.1546004,29.3561209 C26.2915399,28.6397249 25.8475556,27.693125 25.783054,26.7348532 C25.7295881,25.9405346 25.9379657,25.1354993 26.3938192,24.4426857 L26.486,24.31 L24.8725542,22.6968841 L30.3932723,22.4538091 Z" id="形状结合" stroke="#FFFFFF" fill="#000000" transform="translate(28.0032, 26.0321) rotate(-360) translate(-28.0032, -26.0321)"></path>
    </g>
</svg>