<?xml version="1.0" encoding="UTF-8"?>
<svg width="24px" height="24px" viewBox="0 0 24 24" version="1.1" xmlns="http://www.w3.org/2000/svg" xmlns:xlink="http://www.w3.org/1999/xlink">
    <title>Public/ic_public_video_filled</title>
    <defs>
        <path d="M18,12.25 C18,14.1829966 16.4329966,15.75 14.5,15.75 L3.5,15.75 C1.56700338,15.75 2.36723813e-16,14.1829966 0,12.25 L0,3.75 C-2.36723813e-16,1.81700338 1.56700338,0.25 3.5,0.25 L14.5,0.25 C16.4329966,0.25 18,1.81700338 18,3.75 L18,12.25 Z M23.8189379,3.30399329 C23.9377676,3.52337101 24,3.7689244 24,4.01841801 L24,11.981582 C24,12.8100091 23.3284271,13.481582 22.5,13.481582 C22.2505064,13.481582 22.004953,13.4193495 21.7855753,13.3005199 L19,11.7911304 L19,4.20813041 L21.7855753,2.69948006 C22.5140046,2.30491418 23.4243721,2.57556397 23.8189379,3.30399329 Z" id="path-1"></path>
    </defs>
    <g id="Public/ic_public_video_filled" stroke="none" stroke-width="1" fill="none" fill-rule="evenodd">
        <g id="Public/ic_public_video_filled" transform="translate(0.000000, 4.000000)">
            <mask id="mask-2" fill="white">
                <use xlink:href="#path-1"></use>
            </mask>
            <use id="_形状结合" fill="#ffffff" xlink:href="#path-1"></use>
        </g>
    </g>
</svg>