<?xml version="1.0" encoding="UTF-8"?>
<svg height="24" viewBox="0 0 24 24" width="24" xmlns="http://www.w3.org/2000/svg"><g fill-rule="evenodd" opacity=".897554" transform="translate(1 2)"><path d="m4.25 8.25c.55228475 0 1 .44771525 1 1 0 3.1756373 2.57436269 5.75 5.75 5.75 1.7569577 0 3.3298663-.7880079 4.3845787-2.0298765l1.4175761 1.4178586c-1.2113895 1.3669661-2.89844 2.302764-4.8018103 2.5480527l-.0003445 2.0639652c0 .5522847-.4477153 1-1 1-.5355488 0-.9727697-.4209921-.9987762-.9500899l-.0012238-.0499101.0006622-2.0638356c-3.80816944-.4902547-6.7506622-3.7445815-6.7506622-7.6861644 0-.55228475.44771525-1 1-1zm2.75-3.665 7.1417428 7.1410404c-.7325139.9281819-1.8675527 1.5239596-3.1417428 1.5239596-2.209139 0-4-1.790861-4-4zm10.75 3.665c.5522847 0 1 .44771525 1 1 0 1.4256497-.3849459 2.7613904-1.056567 3.9089514l-1.4799267-1.4804461c.3316432-.710757.5222199-1.5005654.5357234-2.33341854l.0007703-.09508676c0-.55228475.4477153-1 1-1zm-6.75-8.25c2.209139 0 4 1.790861 4 4v5.25c0 .37054191-.0503837.72931606-.1446741 1.0698453l-7.63468141-7.63331061c.54346621-1.5639594 2.03031511-2.68653469 3.77935551-2.68653469z" fill-rule="nonzero"/><rect height="24" rx="1" transform="matrix(.70710678 -.70710678 .70710678 .70710678 -3.849242 10.707107)" width="2" x="10" y="-2"/></g></svg>
