<?xml version="1.0" encoding="UTF-8"?>
<svg width="264px" height="264px" viewBox="0 0 19 19" version="1.1" xmlns="http://www.w3.org/2000/svg" xmlns:xlink="http://www.w3.org/1999/xlink">
    <title>Cursor/Colorsucker</title>
    <g id="页面-1" stroke="none" stroke-width="1" fill="none" fill-rule="evenodd">
        <g id="HarmonyOS-cursor-symbol" transform="translate(-632.000000, -240.000000)">
            <g id="Cursor/Colorsucker" transform="translate(621.000000, 230.000000)">
                <g id="编组-2" transform="translate(20.000000, 20.000000) rotate(-45.000000) translate(-20.000000, -20.000000) translate(7.500000, 14.500000)">
                    <path d="M15.75,-1.36424205e-12 C16.9079464,-1.36445476e-12 17.8615904,0.8747222 17.9862059,1.99944035 L21.5,2 C23.4329966,2 25,3.56700338 25,5.5 C25,7.43299662 23.4329966,9 21.5,9 L17.9863164,8.99956043 C17.8621552,10.1247597 16.9082892,11 15.75,11 C14.5073593,11 13.5,9.99264069 13.5,8.75 L13.4991246,8 L3.5,8 C2.6567873,8 1.91107653,7.58254463 1.45826602,6.94303222 C0.84264509,6.75697841 0.393124636,6.18419934 0.393124636,5.50642915 C0.393124636,4.83312287 0.836743354,4.26342928 1.44764002,4.07368917 C1.89800812,3.42480746 2.64939451,3 3.5,3 L13.4991246,3 L13.5,2.25 C13.5,1.00735931 14.5073593,-1.36356969e-12 15.75,-1.36424205e-12 Z" id="形状结合" fill="#FFFFFF"></path>
                    <g id="编组" transform="translate(1.439340, 1.560660)">
                        <rect id="矩形" stroke="#000000" fill="#FFFFFF" x="1.06066017" y="2.93933983" width="17" height="2" rx="1"></rect>
                        <path d="M14.3106602,0 C14.7248737,-7.6089797e-17 15.0606602,0.335786438 15.0606602,0.75 L15.0606602,1.93933983 L15.0606602,1.93933983 L20.0606602,1.93933983 C21.1652297,1.93933983 22.0606602,2.83477033 22.0606602,3.93933983 C22.0606602,5.04390933 21.1652297,5.93933983 20.0606602,5.93933983 L15.0606602,5.93933983 L15.0606602,7.25 C15.0606602,7.66421356 14.7248737,8 14.3106602,8 C13.8964466,8 13.5606602,7.66421356 13.5606602,7.25 L13.5611542,5.26281155 C13.2496783,4.91017548 13.0606602,4.44683143 13.0606602,3.93933983 C13.0606602,3.43184823 13.2496783,2.96850418 13.5611542,2.61586811 L13.5606602,0.75 C13.5606602,0.335786438 13.8964466,7.6089797e-17 14.3106602,0 Z" id="形状结合" stroke="#000000" fill="#000000" stroke-linejoin="round"></path>
                        <path d="M2.06066017,3.43933983 L13.0606602,3.43933983 L13.0606602,3.43933983 L13.0606602,4.43933983 L2.06066017,4.43933983 C1.7845178,4.43933983 1.56066017,4.2154822 1.56066017,3.93933983 C1.56066017,3.66319745 1.7845178,3.43933983 2.06066017,3.43933983 Z" id="矩形" fill="#FFFFFF"></path>
                        <rect id="矩形" fill="#000000" x="0.0606601718" y="3.43933983" width="1" height="1" rx="0.5"></rect>
                    </g>
                </g>
            </g>
        </g>
    </g>
</svg>