<?xml version="1.0" encoding="UTF-8"?>
<svg width="264px" height="264px" viewBox="0 0 40 40" version="1.1" xmlns="http://www.w3.org/2000/svg" xmlns:xlink="http://www.w3.org/1999/xlink">
    <title>Cursor/Hand Grabbing</title>
    <g id="Cursor/Hand-Grabbing" stroke="none" stroke-width="1" fill="none" fill-rule="evenodd" stroke-linecap="round" stroke-linejoin="round">
        <path d="M16.5688899,30.3041299 C15.9818128,29.8308235 16.1904012,28.684416 16.0515014,28.3783602 C15.8712893,27.9812754 15.576023,27.7773816 15.3564748,27.5860873 C13.7802425,26.2127021 13.3167447,24.6310378 13.1357077,23.7853056 C12.9789547,23.0530185 12.8793107,21.9860543 13.0324622,20.9981923 C13.2695197,19.4691184 15.2528266,18.7120926 15.5455785,20 C15.6642142,20.5219156 15.7520628,20.9705901 15.8091242,21.3460234 C15.7303712,20.1800925 15.6425226,19.0400195 15.5455785,17.9258044 C15.4001624,16.2544818 18.4162253,15.8266517 18.5875813,17.3086313 C18.6888246,18.1842387 18.666281,18.7770439 18.6933696,19.0039349 C18.6933696,17.7240605 18.0610094,15.5210974 20.0759116,15.5210974 C21.9410877,15.5210974 21.7009761,17.0427432 21.8738982,18.6782446 C21.8738982,17.1548116 21.8738982,16.09237 23.5831043,16.327686 C25.3732598,16.5741467 24.9569476,19.0370883 24.9569476,19.4750878 C25.0816277,19.1164957 24.7182072,17.3454297 26.3287289,17.8890606 C27.4293358,18.26057 27.3283925,19.3303169 27.3283925,21.3460234 C27.3283925,23.0371749 27.0227883,24.014969 26.6262234,24.9983041 C26.293204,25.8240696 25.7364969,26.82729 25.3627828,27.4401357 C25.0592676,27.9378637 25.0100942,28.1472626 24.9569476,28.5773308 C24.903801,29.0073989 25.0924456,29.6907201 24.4605617,30.1841936 C23.8286778,30.677667 21.1423841,30.7511082 20.1753018,30.7511082 C19.3202617,30.7511082 17.155967,30.7774363 16.5688899,30.3041299 Z" id="路径-13备份" stroke="#000000" fill="#FFFFFF"></path>
        <path d="M18,28.6820938 C19.2010704,28.8867338 20.8734594,28.8701064 23.0171671,28.6322116" id="路径-17备份" stroke="#020202"></path>
    </g>
</svg>