<?xml version="1.0" encoding="UTF-8"?>
<svg width="264px" height="264px" viewBox="0 0 40 40" version="1.1" xmlns="http://www.w3.org/2000/svg" xmlns:xlink="http://www.w3.org/1999/xlink">
    <title>Cursor/Hand Pointing</title>
    <g id="页面-1" stroke="none" stroke-width="1" fill="none" fill-rule="evenodd" stroke-linecap="round" stroke-linejoin="round">
        <g id="HarmonyOS-cursor-symbol" transform="translate(-472.000000, -81.000000)">
            <g id="Cursor/Hand-Pointing" transform="translate(461.000000, 70.000000)">
                <path d="M16.5688899,30.3041299 C15.9818128,29.8308235 16.1904012,28.684416 16.0515014,28.3783602 C15.8712893,27.9812754 15.5588081,27.7972632 15.3564748,27.5860873 C14.1563136,26.3334756 13.8827012,25.1195163 13.4474856,23.7429963 C13.0915623,22.6172655 12.8624269,22.4652708 12.2006048,21.254293 C11.5071628,19.9854585 12.7455361,18.7897022 13.8714306,19.5317619 C14.6789296,20.063972 15.3827152,20.7830279 15.9827874,21.6889297 C15.9642695,20.4679993 15.9191668,18.9951689 15.8474792,17.2704384 C15.7399478,14.6833427 15.6438784,14.5459686 15.5855126,12.8732023 C15.5271468,11.200436 17.8997231,11.0304072 18.0827613,12.611515 C18.2657996,14.1926227 18.639184,17.3453598 18.772101,19.2078176 C18.772101,18.7897022 18.2236951,16.1577713 20.0546999,16.266859 C21.9427812,16.3793473 21.909321,17.8245197 21.909321,19.2078176 C21.909321,18.8102311 21.7592759,17.1524412 23.0548332,17.2704384 C25.370542,17.4813495 24.7123128,19.3558499 24.8185913,19.7675423 C24.8185913,19.3061449 24.7425827,17.9895386 26.332776,18.5858942 C26.7782294,18.7529485 27.3283925,19.3303169 27.3283925,21.3460234 C27.3283925,23.0371749 27.0227883,24.014969 26.6262234,24.9983041 C26.293204,25.8240696 25.7364969,26.82729 25.3627828,27.4401357 C25.0592676,27.9378637 25.0100942,28.1472626 24.9569476,28.5773308 C24.903801,29.0073989 25.0924456,29.6907201 24.4605617,30.1841936 C23.8286778,30.677667 21.1423841,30.7511082 20.1753018,30.7511082 C19.3202617,30.7511082 17.155967,30.7774363 16.5688899,30.3041299 Z" id="路径-13" stroke="#000000" fill="#FFFFFF" fill-rule="evenodd"></path>
                <path d="M18,28.6820938 C19.2010704,28.8867338 20.8734594,28.8701064 23.0171671,28.6322116" id="路径-17" stroke="#020202"></path>
            </g>
        </g>
    </g>
</svg>