<?xml version="1.0" encoding="UTF-8"?>
<svg width="264px" height="264px" viewBox="0 0 40 40" version="1.1" xmlns="http://www.w3.org/2000/svg" xmlns:xlink="http://www.w3.org/1999/xlink">
    <title>Cursor/Hand Open</title>
    <g id="Cursor/Hand-Open" stroke="none" stroke-width="1" fill="none" fill-rule="evenodd" stroke-linecap="round" stroke-linejoin="round">
        <path d="M16.5688899,30.3041299 C15.9818128,29.8308235 16.1904012,28.684416 16.0515014,28.3783602 C15.8712893,27.9812754 15.5588081,27.7972632 15.3564748,27.5860873 C14.1563136,26.3334756 13.8827012,25.1195163 13.4474856,23.7429963 C13.0915623,22.6172655 12.740171,22.0035391 11.9870117,20.7801936 C11.2390388,19.5652723 12.6145615,18.5837581 13.7744308,19.2301149 C14.6174199,19.6998849 15.3535388,20.5194898 15.9827874,21.6889297 C15.8356218,20.1404481 15.6746927,18.7441382 15.5,17.5 C15.237961,15.6337927 15.1120057,15.1140165 14.7496784,13.4162264 C14.387351,11.7184363 16.4620869,11.2276542 17.0734592,12.9835038 C17.6848314,14.7393535 18.4381218,17.2241557 18.772101,19.0545483 C18.8775256,18.4326249 18.5415088,14.0323004 18.3955374,11.3101759 C18.3095972,9.7075334 20.593201,9.48841123 20.8401706,11.137324 C21.1568555,13.2516963 21.703654,17.7419035 21.8452531,18.7133743 C21.9566485,18.3819566 22.0318668,17.6745749 22.2200423,15.4005754 C22.2985555,14.4517856 22.3717175,12.4396558 22.4091602,12.019374 C22.5415092,10.533799 24.7065117,10.5511251 24.7065117,12.1818117 C24.7065117,13.86085 24.6281134,17.4259616 24.8066208,19.4388085 C24.9569476,18.8819219 25.5207472,16.5946594 25.8904464,15.1140165 C26.2785437,13.5596894 28.0835411,13.9810952 27.9553222,15.4005754 C27.7424348,17.7574005 27.6277103,19.9479986 27.4363217,21.2940221 C27.1997577,22.9577609 27.0227883,24.014969 26.6262234,24.9983041 C26.293204,25.8240696 25.7364969,26.82729 25.3627828,27.4401357 C25.0592676,27.9378637 25.0100942,28.1472626 24.9569476,28.5773308 C24.903801,29.0073989 25.0924456,29.6907201 24.4605617,30.1841936 C23.8286778,30.677667 21.1423841,30.7511082 20.1753018,30.7511082 C19.3202617,30.7511082 17.155967,30.7774363 16.5688899,30.3041299 Z" id="路径-13备份" stroke="#000000" fill="#FFFFFF"></path>
        <path d="M18,28.6820938 C19.2010704,28.8867338 20.8734594,28.8701064 23.0171671,28.6322116" id="路径-17备份" stroke="#020202"></path>
    </g>
</svg>