<?xml version="1.0" encoding="UTF-8"?>
<svg width="264px" height="264px" viewBox="0 0 40 40" version="1.1" xmlns="http://www.w3.org/2000/svg" xmlns:xlink="http://www.w3.org/1999/xlink">
    <title>Cursor/Help</title>
    <g id="页面-1" stroke="none" stroke-width="1" fill="none" fill-rule="evenodd">
        <g id="HarmonyOS-cursor-symbol" transform="translate(-149.000000, -71.000000)">
            <g id="Cursor/Help" transform="translate(141.000000, 70.000000)">
                <g id="角标" stroke-width="1" fill-rule="evenodd" transform="translate(8.000000, 16.000000)" fill="#0A5AF7">
                    <rect id="矩形" x="0" y="0" width="24" height="24" rx="12"></rect>
                </g>
                <path d="M4.6109127,2.40380592 L4.6109127,20.3739245 L9.87666507,15.1109127 L17.3180195,15.1109127 L4.6109127,2.40380592 Z" id="路径-21备份-2" stroke="#FFFFFF" stroke-width="1" fill="#000000" fill-rule="evenodd" stroke-linejoin="round" transform="translate(10.610913, 11.389087) scale(-1, 1) rotate(-315.000000) translate(-10.610913, -11.389087) "></path>
                <path d="M20,31.9997066 C19.44775,31.9997066 19,32.4474566 19,32.9997066 C19,33.5519566 19.44775,33.9997066 20,33.9997066 C20.55225,33.9997066 21,33.5519566 21,32.9997066 C21,32.4474566 20.55225,31.9997066 20,31.9997066" id="Fill-23" fill="#FFFFFF" fill-rule="evenodd"></path>
                <path d="M18,25.4646434 C18,25.878857 17.6642136,26.2146434 17.25,26.2146434 C16.8357864,26.2146434 16.5,25.878857 16.5,25.4646434 C16.5,23.2883698 18.4971863,21.6453259 20.6929199,22.0660468 C22.0644076,22.3292142 23.1648814,23.4156186 23.4322233,24.775153 C23.7561549,26.4216245 22.8855687,28.0038691 21.390581,28.6450793 C21.0054203,28.8102434 20.7501432,29.2173255 20.7501432,29.6713928 L20.7501432,30.2497066 C20.7501432,30.6639201 20.4143567,30.9997066 20.0001432,30.9997066 C19.5859296,30.9997066 19.2501432,30.6639201 19.2501432,30.2497066 L19.2501432,29.6713928 C19.2501432,28.6303256 19.8501216,27.6735596 20.7993629,27.2665072 C21.6538963,26.8999921 22.1456712,26.0062171 21.9604236,25.0646451 C21.8115486,24.3075596 21.1835078,23.6875482 20.4104462,23.5392096 C19.1380704,23.2954118 18,24.2316788 18,25.4646434 Z" id="Stroke-25" fill="#FFFFFF" fill-rule="nonzero"></path>
            </g>
        </g>
    </g>
</svg>