<?xml version="1.0" encoding="UTF-8"?>
<svg width="264px" height="264px" viewBox="0 0 40 40" version="1.1" xmlns="http://www.w3.org/2000/svg" xmlns:xlink="http://www.w3.org/1999/xlink">
    <title>Cursor/Mouse Wheel/North South West East </title>
    <g id="Cursor/Mouse-Wheel/North-South-West-East-" stroke="none" stroke-width="1" fill="none" fill-rule="evenodd">
        <g id="编组备份-2" transform="translate(6.000000, 7.000000)">
            <g id="编组" transform="translate(0.683026, 0.000000)" fill="#000000" stroke="#FFFFFF" stroke-linejoin="round">
                <path d="M13.3169738,-0.833333333 L7.26392019,7.23740482 L13.3169738,4.54715877 L19.3700274,7.23740482 L13.3169738,-0.833333333 Z" id="路径-8"></path>
                <path d="M13.3169738,19.1666667 L7.26392019,27.2374048 L13.3169738,24.5471588 L19.3700274,27.2374048 L13.3169738,19.1666667 Z" id="路径-8备份-4" transform="translate(13.316974, 23.000000) rotate(-180.000000) translate(-13.316974, -23.000000) "></path>
                <path d="M23.3169738,9.16666667 L17.2639202,17.2374048 L23.3169738,14.5471588 L29.3700274,17.2374048 L23.3169738,9.16666667 Z" id="路径-8备份-5" transform="translate(23.316974, 13.000000) rotate(-270.000000) translate(-23.316974, -13.000000) "></path>
                <path d="M3.3169738,9.16666667 L-2.73607981,17.2374048 L3.3169738,14.5471588 L9.37002742,17.2374048 L3.3169738,9.16666667 Z" id="路径-8备份-5" transform="translate(3.316974, 13.000000) rotate(-90.000000) translate(-3.316974, -13.000000) "></path>
            </g>
            <circle id="椭圆形" stroke="#FFFFFF" stroke-width="2" fill="#FFFFFF" transform="translate(14.000000, 13.000000) rotate(-360.000000) translate(-14.000000, -13.000000) " cx="14" cy="13" r="5"></circle>
            <circle id="椭圆形" stroke="#000000" stroke-width="1.3" fill="#FFFFFF" transform="translate(14.000000, 13.000000) rotate(-360.000000) translate(-14.000000, -13.000000) " cx="14" cy="13" r="4.35"></circle>
        </g>
    </g>
</svg>