<?xml version="1.0" encoding="UTF-8"?>
<svg width="264px" height="264px" viewBox="0 0 40 40" version="1.1" xmlns="http://www.w3.org/2000/svg" xmlns:xlink="http://www.w3.org/1999/xlink">
    <title>Cursor/Screenshot Corss</title>
    <g id="Cursor/Screenshot-Corss" stroke="none" stroke-width="1" fill="none" fill-rule="evenodd">
        <path d="M21.5,7.5 L19.5,7.5 L19.5,19.5370015 L7.5,19.5370386 L7.5,21.4630031 L19.5,21.4620401 L19.5,33.5 L21.5,33.5 L21.5,21.4620401 L33.5,21.4630031 L33.5,19.5370386 L21.5,19.5370015 L21.5,7.5 Z" id="形状结合" stroke="#FFFFFF" fill="#000000"></path>
        <path d="M20.5180871,14.5 C18.8612329,14.5 17.3612329,15.1715729 16.2754465,16.2573593 C15.18966,17.3431458 14.5180871,18.8431458 14.5180871,20.5 C14.5180871,22.1568542 15.18966,23.6568542 16.2754465,24.7426407 C17.3612329,25.8284271 18.8612329,26.5 20.5180871,26.5 C22.1749414,26.5 23.6749414,25.8284271 24.7607278,24.7426407 C25.8465143,23.6568542 26.5180871,22.1568542 26.5180871,20.5 C26.5180871,18.8431458 25.8465143,17.3431458 24.7607278,16.2573593 C23.6749414,15.1715729 22.1749414,14.5 20.5180871,14.5 Z" id="椭圆形" stroke="#000000" opacity="0.300000012"></path>
        <rect id="矩形" fill="#FFFFFF" x="20" y="20" width="1" height="1"></rect>
    </g>
</svg>