<?xml version="1.0" encoding="UTF-8"?>
<svg width="264px" height="264px" viewBox="0 0 40 40" version="1.1" xmlns="http://www.w3.org/2000/svg" xmlns:xlink="http://www.w3.org/1999/xlink">
    <title>Cursor/Zoom In</title>
    <g id="Cursor/Zoom-In" stroke="none" stroke-width="1" fill="none" fill-rule="evenodd">
        <path d="M18,9.5 C20.3472102,9.5 22.4722102,10.4513949 24.0104076,11.9895924 C25.5486051,13.5277898 26.5,15.6527898 26.5,18 C26.5,19.8053776 25.937076,21.4792495 24.9773287,22.8558144 L24.9773287,22.8558144 L31.9822338,29.8609232 L30.0430857,32.0155321 L22.859393,24.9748323 C21.482151,25.9360998 19.8069423,26.5 18,26.5 C15.6527898,26.5 13.5277898,25.5486051 11.9895924,24.0104076 C10.4513949,22.4722102 9.5,20.3472102 9.5,18 C9.5,15.6527898 10.4513949,13.5277898 11.9895924,11.9895924 C13.5277898,10.4513949 15.6527898,9.5 18,9.5 Z M18,12 C16.3431458,12 14.8431458,12.6715729 13.7573593,13.7573593 C12.6715729,14.8431458 12,16.3431458 12,18 C12,19.6568542 12.6715729,21.1568542 13.7573593,22.2426407 C14.8431458,23.3284271 16.3431458,24 18,24 C19.6568542,24 21.1568542,23.3284271 22.2426407,22.2426407 C23.3284271,21.1568542 24,19.6568542 24,18 C24,16.3431458 23.3284271,14.8431458 22.2426407,13.7573593 C21.1568542,12.6715729 19.6568542,12 18,12 Z" id="形状结合" stroke="#FFFFFF" fill="#000000"></path>
        <circle id="椭圆形" fill="#FFFFFF" cx="18" cy="18" r="6"></circle>
        <path d="M18,14 C18.4142136,14 18.75,14.3357864 18.75,14.75 L18.75,21.25 C18.75,21.6642136 18.4142136,22 18,22 C17.5857864,22 17.25,21.6642136 17.25,21.25 L17.249,18.75 L14.75,18.75 C14.3357864,18.75 14,18.4142136 14,18 C14,17.5857864 14.3357864,17.25 14.75,17.25 L17.25,17.25 L17.25,14.75 C17.25,14.3357864 17.5857864,14 18,14 Z M21.25,17.25 C21.6642136,17.25 22,17.5857864 22,18 C22,18.4142136 21.6642136,18.75 21.25,18.75 L19.75,18.75 L19.75,17.25 L21.25,17.25 Z" id="形状结合" fill="#000000"></path>
        <rect id="矩形" fill="#000000" x="17" y="17.25" width="3" height="1.5"></rect>
    </g>
</svg>